<svg xmlns="http://www.w3.org/2000/svg" viewBox="0 0 50 50"><path d="M 1.1875 0 C 0.9375 0 0.699219 0.113281 0.5 0.3125 C 0.101563 0.710938 0.101563 1.289063 0.5 1.6875 L 48.5 49.6875 C 48.699219 49.886719 48.988281 50 49.1875 50 C 49.386719 50 49.707031 49.886719 49.90625 49.6875 C 50.304688 49.289063 50.304688 48.710938 49.90625 48.3125 L 42.34375 40.75 C 47.167969 36.972656 50 31.199219 50 24.90625 C 50 17.207031 45.707031 10.3125 38.90625 6.8125 C 38.40625 6.613281 37.792969 6.6875 37.59375 7.1875 C 37.394531 7.886719 37.601563 8.488281 38 8.6875 C 44.199219 11.789063 48 18.101563 48 25 C 48 30.691406 45.378906 35.972656 40.96875 39.375 L 37.78125 36.1875 C 41.078125 33.496094 43.09375 29.414063 43.09375 25 C 43.09375 19.699219 40.199219 14.8125 35.5 12.3125 C 35 12.011719 34.394531 12.1875 34.09375 12.6875 C 33.792969 13.1875 34.007813 13.800781 34.40625 14 C 38.40625 16.199219 41 20.398438 41 25 C 41 28.820313 39.253906 32.398438 36.3125 34.71875 L 32.5 30.90625 C 34.609375 29.714844 36 27.503906 36 25 C 36 21.898438 33.90625 19.207031 30.90625 18.40625 C 30.40625 18.304688 29.785156 18.59375 29.6875 19.09375 C 29.589844 19.59375 29.90625 20.210938 30.40625 20.3125 C 32.507813 20.8125 34 22.707031 34 24.90625 C 34 26.890625 32.777344 28.699219 31 29.40625 L 27 25.40625 L 27 6.3125 C 27 4.011719 25.488281 3 24.1875 3 C 23.289063 3 22.394531 3.386719 21.59375 4.1875 L 13.6875 12.09375 L 1.90625 0.3125 C 1.707031 0.113281 1.4375 0 1.1875 0 Z M 11 14.6875 L 10 15.78125 L 10 34.1875 L 21.5 45.6875 C 22.601563 46.789063 23.488281 47 24.1875 47 C 25.886719 47 27 45.511719 27 43.3125 L 27 30.6875 Z M 3 16 C 1.300781 16 0 17.300781 0 19 L 0 31 C 0 32.699219 1.300781 34 3 34 L 8 34 L 8 16 Z"></path></svg>
